<?xml version="1.0" standalone="no"?>
<!DOCTYPE svg PUBLIC "-//W3C//DTD SVG 20010904//EN"
 "http://www.w3.org/TR/2001/REC-SVG-20010904/DTD/svg10.dtd">
<svg version="1.0" xmlns="http://www.w3.org/2000/svg"
 width="500.000000pt" height="500.000000pt" viewBox="0 0 500.000000 500.000000"
 preserveAspectRatio="xMidYMid meet">
<metadata>
Created by potrace 1.11, written by Peter Selinger 2001-2013
</metadata>
<g transform="translate(0.000000,500.000000) scale(0.100000,-0.100000)"
fill="#000000" stroke="none">
<path d="M2314 4989 c-315 -24 -621 -108 -909 -248 -680 -332 -1176 -957
-1340 -1685 -49 -218 -58 -308 -59 -546 -1 -309 32 -527 124 -802 182 -543
553 -1016 1040 -1325 597 -378 1356 -483 2037 -282 400 119 740 318 1041 613
467 456 728 1051 749 1706 20 641 -193 1233 -623 1730 -356 412 -887 711
-1431 805 -235 41 -417 51 -629 34z m1032 -1184 c35 -23 63 -72 70 -126 l6
-47 60 59 c111 109 260 156 416 130 143 -24 236 -92 293 -213 l34 -73 3 -410
c2 -225 0 -425 -3 -443 -3 -18 -20 -48 -36 -67 -86 -97 -234 -49 -259 84 -5
30 -10 196 -10 371 0 262 -3 326 -16 371 -29 96 -66 131 -156 144 -110 17
-222 -46 -274 -152 l-29 -58 -5 -345 c-6 -386 -8 -399 -78 -442 -47 -29 -121
-30 -159 -2 -82 61 -85 86 -81 657 3 465 3 473 25 513 37 69 133 93 199 49z
m-2162 -455 c79 -40 121 -115 133 -242 l8 -77 43 52 c158 190 386 296 634 297
291 0 525 -132 637 -362 73 -150 73 -154 78 -873 5 -666 2 -718 -37 -795 -25
-48 -88 -104 -136 -121 -98 -33 -232 2 -289 76 -62 82 -59 56 -66 695 -4 399
-10 604 -18 645 -46 229 -127 311 -317 323 -239 14 -449 -162 -485 -408 -6
-41 -14 -313 -18 -605 -7 -592 -6 -579 -80 -659 -141 -152 -398 -78 -441 127
-7 37 -10 319 -8 917 l3 865 29 53 c48 86 119 124 221 119 39 -2 77 -11 109
-27z"/>
</g>
</svg>
