<?xml version="1.0" standalone="no"?>
<!DOCTYPE svg PUBLIC "-//W3C//DTD SVG 20010904//EN"
 "http://www.w3.org/TR/2001/REC-SVG-20010904/DTD/svg10.dtd">
<svg version="1.0" xmlns="http://www.w3.org/2000/svg"
 width="700.000000pt" height="700.000000pt" viewBox="0 0 700.000000 700.000000"
 preserveAspectRatio="xMidYMid meet">
<metadata>
Created by potrace 1.11, written by Peter Selinger 2001-2013
</metadata>
<g transform="translate(0.000000,700.000000) scale(0.100000,-0.100000)"
fill="#000000" stroke="none">
<path d="M3278 6995 c-2 -1 -41 -5 -88 -9 -87 -7 -105 -9 -225 -27 -116 -18
-123 -19 -192 -35 -184 -42 -248 -59 -369 -99 -264 -88 -538 -216 -759 -356
-346 -217 -655 -497 -910 -824 -238 -304 -432 -668 -559 -1047 -31 -94 -79
-267 -91 -329 -3 -13 -11 -58 -20 -99 -29 -147 -36 -200 -52 -370 -15 -164 -8
-589 12 -711 2 -13 6 -46 10 -74 11 -92 16 -119 47 -260 70 -328 226 -736 373
-979 19 -32 35 -61 35 -63 0 -3 42 -69 94 -146 83 -125 240 -331 300 -393 227
-237 373 -371 536 -489 30 -22 57 -43 58 -47 2 -5 8 -8 14 -8 11 0 101 -61
106 -72 2 -5 8 -8 14 -8 6 0 34 -15 62 -34 151 -99 449 -242 658 -315 128 -44
321 -99 453 -127 46 -10 231 -42 245 -42 8 0 31 -3 50 -6 203 -32 688 -28 907
8 21 4 52 8 68 10 157 20 440 93 645 168 181 66 503 218 569 269 13 11 28 19
33 19 5 0 14 4 21 10 7 5 62 43 124 84 256 171 491 376 676 591 33 39 63 72
67 75 17 13 181 236 245 335 219 336 406 779 481 1140 16 79 54 301 59 350 4
33 9 71 11 85 9 47 11 525 4 605 -13 130 -21 202 -25 227 -3 13 -8 43 -11 68
-9 67 -70 335 -94 412 -11 37 -21 70 -21 73 0 2 -16 49 -35 102 -222 615 -578
1125 -1074 1541 -66 56 -304 230 -351 257 -235 137 -500 275 -527 275 -4 0
-26 8 -48 19 -96 46 -391 136 -562 172 -54 11 -106 22 -117 25 -11 2 -38 6
-60 9 -22 3 -51 7 -65 10 -13 2 -52 7 -86 11 -33 3 -74 8 -90 10 -32 5 -540
14 -546 9z"/>
</g>
</svg>
