<?xml version="1.0" standalone="no"?>
<!DOCTYPE svg PUBLIC "-//W3C//DTD SVG 20010904//EN"
 "http://www.w3.org/TR/2001/REC-SVG-20010904/DTD/svg10.dtd">
<svg version="1.0" xmlns="http://www.w3.org/2000/svg"
 width="512.000000pt" height="512.000000pt" viewBox="0 0 512.000000 512.000000"
 preserveAspectRatio="xMidYMid meet">
<metadata>
Created by potrace 1.11, written by Peter Selinger 2001-2013
</metadata>
<g transform="translate(0.000000,512.000000) scale(0.100000,-0.100000)"
fill="#000000" stroke="none">
<path d="M2378 5115 c-2 -1 -34 -6 -73 -9 -38 -4 -77 -9 -85 -11 -8 -2 -35 -6
-60 -9 -49 -7 -79 -12 -125 -23 -16 -4 -32 -7 -35 -8 -3 -1 -18 -4 -35 -8 -16
-4 -40 -9 -53 -12 -44 -8 -289 -94 -358 -126 -139 -63 -199 -93 -202 -101 -2
-4 -9 -8 -14 -8 -11 0 -208 -117 -218 -129 -3 -4 -22 -17 -42 -31 -21 -14 -38
-28 -38 -32 0 -5 -7 -8 -15 -8 -8 0 -15 -4 -15 -10 0 -5 -4 -10 -9 -10 -9 0
-43 -28 -107 -87 -20 -18 -38 -33 -40 -33 -13 0 -204 -204 -277 -295 -68 -85
-68 -84 -112 -150 -22 -33 -43 -62 -46 -65 -6 -5 -50 -81 -123 -214 -104 -188
-219 -537 -251 -761 -29 -196 -33 -258 -30 -450 2 -115 5 -221 8 -235 3 -14 8
-47 11 -75 3 -27 8 -61 11 -75 3 -14 8 -41 11 -60 3 -19 10 -53 16 -75 5 -22
11 -47 13 -55 13 -68 96 -324 121 -371 7 -15 10 -29 7 -33 -4 -3 -1 -6 5 -6 7
0 12 -5 12 -10 0 -6 20 -52 45 -103 50 -101 54 -108 102 -184 18 -29 33 -57
33 -63 0 -5 4 -10 8 -10 5 0 14 -11 20 -24 6 -14 18 -33 26 -43 8 -10 41 -54
74 -98 137 -183 308 -351 517 -508 71 -53 105 -77 130 -91 17 -9 44 -25 60
-36 17 -11 37 -23 45 -27 8 -3 27 -15 42 -25 16 -11 28 -16 28 -11 0 4 4 3 8
-2 10 -15 175 -93 196 -93 5 0 12 -4 15 -9 19 -26 384 -138 515 -157 21 -4 41
-8 45 -10 3 -2 33 -6 66 -10 33 -3 80 -9 105 -13 64 -9 442 -9 525 0 133 16
311 48 358 66 15 6 27 8 27 6 0 -3 16 1 35 9 19 8 35 13 35 11 0 -7 229 75
300 107 126 57 135 62 142 72 4 6 8 8 8 4 0 -13 318 179 350 212 3 3 23 18 45
35 22 16 45 34 51 40 7 5 36 30 65 55 105 89 244 236 332 351 31 41 61 79 66
85 12 14 112 169 138 214 48 80 101 189 95 194 -3 3 -1 6 5 6 10 0 20 22 29
65 3 10 8 22 13 25 10 6 107 291 116 339 3 19 8 38 11 42 7 11 33 145 49 254
14 94 15 663 2 715 -4 14 -9 39 -11 55 -20 140 -88 386 -143 520 -58 142 -159
343 -213 425 -6 8 -19 29 -30 45 -10 17 -24 35 -29 42 -6 7 -11 17 -11 23 0 5
-4 10 -8 10 -4 0 -15 12 -24 28 -10 15 -27 39 -40 54 -13 15 -34 41 -46 57
-134 173 -372 388 -572 516 -41 27 -87 57 -102 67 -47 32 -278 144 -375 181
-170 67 -423 133 -578 152 -27 3 -66 8 -85 11 -37 6 -456 14 -462 9z"/>
</g>
</svg>
